<mxfile host="app.diagrams.net" modified="2022-01-22T08:55:24.694Z" agent="5.0 (Macintosh; Intel Mac OS X 10_15_7) AppleWebKit/537.36 (KHTML, like Gecko) Chrome/96.0.4664.110 Safari/537.36" etag="MeKc8tKBEfWadUD0dGpZ" version="16.2.4" type="github">
  <diagram id="gfgtTtWjfhy5DHDohxUY" name="Page-1">
    <mxGraphModel dx="1069" dy="768" grid="1" gridSize="10" guides="1" tooltips="1" connect="1" arrows="1" fold="1" page="1" pageScale="1" pageWidth="827" pageHeight="1169" math="0" shadow="0">
      <root>
        <mxCell id="0" />
        <mxCell id="1" parent="0" />
        <mxCell id="2xFgktIqJlnnEUy-JSwJ-11" style="edgeStyle=orthogonalEdgeStyle;rounded=0;orthogonalLoop=1;jettySize=auto;html=1;fontSize=18;strokeWidth=2;" edge="1" parent="1" source="2xFgktIqJlnnEUy-JSwJ-3" target="2xFgktIqJlnnEUy-JSwJ-5">
          <mxGeometry relative="1" as="geometry" />
        </mxCell>
        <mxCell id="2xFgktIqJlnnEUy-JSwJ-13" value="二审（终审）" style="edgeLabel;html=1;align=center;verticalAlign=middle;resizable=0;points=[];fontSize=18;" vertex="1" connectable="0" parent="2xFgktIqJlnnEUy-JSwJ-11">
          <mxGeometry x="0.0308" y="3" relative="1" as="geometry">
            <mxPoint y="-17" as="offset" />
          </mxGeometry>
        </mxCell>
        <mxCell id="2xFgktIqJlnnEUy-JSwJ-3" value="" style="sketch=0;pointerEvents=1;shadow=0;dashed=0;html=1;strokeColor=none;labelPosition=center;verticalLabelPosition=bottom;verticalAlign=top;outlineConnect=0;align=center;shape=mxgraph.office.users.users;fillColor=#000000;fontSize=18;" vertex="1" parent="1">
          <mxGeometry x="340" y="280" width="100" height="100" as="geometry" />
        </mxCell>
        <mxCell id="2xFgktIqJlnnEUy-JSwJ-4" value="TC通道分会" style="text;html=1;align=center;verticalAlign=middle;resizable=0;points=[];autosize=1;strokeColor=none;fillColor=none;fontSize=18;" vertex="1" parent="1">
          <mxGeometry x="335" y="390" width="110" height="30" as="geometry" />
        </mxCell>
        <mxCell id="2xFgktIqJlnnEUy-JSwJ-5" value="" style="sketch=0;pointerEvents=1;shadow=0;dashed=0;html=1;strokeColor=none;labelPosition=center;verticalLabelPosition=bottom;verticalAlign=top;outlineConnect=0;align=center;shape=mxgraph.office.users.users;fillColor=#2072B8;fontSize=18;" vertex="1" parent="1">
          <mxGeometry x="570" y="280" width="100" height="100" as="geometry" />
        </mxCell>
        <mxCell id="2xFgktIqJlnnEUy-JSwJ-6" value="TC总会" style="text;html=1;align=center;verticalAlign=middle;resizable=0;points=[];autosize=1;strokeColor=none;fillColor=none;fontSize=18;" vertex="1" parent="1">
          <mxGeometry x="580" y="390" width="80" height="30" as="geometry" />
        </mxCell>
        <mxCell id="2xFgktIqJlnnEUy-JSwJ-10" style="edgeStyle=orthogonalEdgeStyle;rounded=0;orthogonalLoop=1;jettySize=auto;html=1;fontSize=18;strokeWidth=2;" edge="1" parent="1" source="2xFgktIqJlnnEUy-JSwJ-8" target="2xFgktIqJlnnEUy-JSwJ-3">
          <mxGeometry relative="1" as="geometry" />
        </mxCell>
        <mxCell id="2xFgktIqJlnnEUy-JSwJ-12" value="一审" style="edgeLabel;html=1;align=center;verticalAlign=middle;resizable=0;points=[];fontSize=18;" vertex="1" connectable="0" parent="2xFgktIqJlnnEUy-JSwJ-10">
          <mxGeometry x="-0.5373" y="-2" relative="1" as="geometry">
            <mxPoint x="23" y="-22" as="offset" />
          </mxGeometry>
        </mxCell>
        <mxCell id="2xFgktIqJlnnEUy-JSwJ-8" value="" style="sketch=0;pointerEvents=1;shadow=0;dashed=0;html=1;strokeColor=none;labelPosition=center;verticalLabelPosition=bottom;verticalAlign=top;outlineConnect=0;align=center;shape=mxgraph.office.users.user;fillColor=#DA4026;fontSize=18;" vertex="1" parent="1">
          <mxGeometry x="130" y="292.5" width="76" height="75" as="geometry" />
        </mxCell>
        <mxCell id="2xFgktIqJlnnEUy-JSwJ-9" value="丁思芳" style="text;html=1;align=center;verticalAlign=middle;resizable=0;points=[];autosize=1;strokeColor=none;fillColor=none;fontSize=18;" vertex="1" parent="1">
          <mxGeometry x="133" y="390" width="70" height="30" as="geometry" />
        </mxCell>
      </root>
    </mxGraphModel>
  </diagram>
</mxfile>
